<mxfile host="app.diagrams.net" agent="Mozilla/5.0 (Windows NT 10.0; Win64; x64) AppleWebKit/537.36 (KHTML, like Gecko) Chrome/128.0.0.0 Safari/537.36 OPR/114.0.0.0" version="26.0.7">
  <diagram name="Page-1" id="9iZ0ap3zl_7oZKvwGytr">
    <mxGraphModel dx="2018" dy="1078" grid="1" gridSize="10" guides="1" tooltips="1" connect="1" arrows="1" fold="1" page="1" pageScale="1" pageWidth="850" pageHeight="1100" math="0" shadow="0">
      <root>
        <mxCell id="0" />
        <mxCell id="1" parent="0" />
        <mxCell id="XUeqsiyK5jiDArJPYxm4-9" value="" style="rounded=0;whiteSpace=wrap;html=1;fillColor=#dae8fc;strokeColor=#6c8ebf;container=0;" vertex="1" parent="1">
          <mxGeometry x="360" y="360" width="480" height="650" as="geometry" />
        </mxCell>
        <mxCell id="XUeqsiyK5jiDArJPYxm4-81" style="edgeStyle=orthogonalEdgeStyle;rounded=0;orthogonalLoop=1;jettySize=auto;html=1;entryX=0.5;entryY=0;entryDx=0;entryDy=0;" edge="1" parent="1" source="XUeqsiyK5jiDArJPYxm4-1" target="XUeqsiyK5jiDArJPYxm4-11">
          <mxGeometry relative="1" as="geometry">
            <Array as="points">
              <mxPoint x="359" y="240" />
              <mxPoint x="440" y="240" />
            </Array>
          </mxGeometry>
        </mxCell>
        <mxCell id="XUeqsiyK5jiDArJPYxm4-1" value="" style="shape=umlActor;verticalLabelPosition=bottom;verticalAlign=top;html=1;outlineConnect=0;" vertex="1" parent="1">
          <mxGeometry x="343.75" y="150" width="30" height="60" as="geometry" />
        </mxCell>
        <mxCell id="XUeqsiyK5jiDArJPYxm4-2" value="Administrador" style="shape=umlActor;verticalLabelPosition=bottom;verticalAlign=top;html=1;outlineConnect=0;" vertex="1" parent="1">
          <mxGeometry x="220" y="830" width="30" height="60" as="geometry" />
        </mxCell>
        <mxCell id="XUeqsiyK5jiDArJPYxm4-45" value="Usuario&lt;div&gt;No registrado&lt;/div&gt;" style="text;html=1;align=center;verticalAlign=middle;whiteSpace=wrap;rounded=0;" vertex="1" parent="1">
          <mxGeometry x="317.5" y="110" width="82.5" height="30" as="geometry" />
        </mxCell>
        <mxCell id="XUeqsiyK5jiDArJPYxm4-46" value="" style="rounded=0;whiteSpace=wrap;html=1;fillColor=#ffe6cc;strokeColor=#d79b00;" vertex="1" parent="1">
          <mxGeometry x="373.75" y="1060" width="380" height="400" as="geometry" />
        </mxCell>
        <mxCell id="XUeqsiyK5jiDArJPYxm4-55" style="edgeStyle=orthogonalEdgeStyle;rounded=0;orthogonalLoop=1;jettySize=auto;html=1;entryX=0.5;entryY=0;entryDx=0;entryDy=0;" edge="1" parent="1" source="XUeqsiyK5jiDArJPYxm4-47" target="XUeqsiyK5jiDArJPYxm4-52">
          <mxGeometry relative="1" as="geometry" />
        </mxCell>
        <mxCell id="XUeqsiyK5jiDArJPYxm4-47" value="Administración de Impresoras" style="ellipse;whiteSpace=wrap;html=1;" vertex="1" parent="1">
          <mxGeometry x="410" y="1090" width="120" height="80" as="geometry" />
        </mxCell>
        <mxCell id="XUeqsiyK5jiDArJPYxm4-48" value="Administración de Filamentos" style="ellipse;whiteSpace=wrap;html=1;" vertex="1" parent="1">
          <mxGeometry x="410" y="1330" width="120" height="80" as="geometry" />
        </mxCell>
        <mxCell id="XUeqsiyK5jiDArJPYxm4-54" style="edgeStyle=orthogonalEdgeStyle;rounded=0;orthogonalLoop=1;jettySize=auto;html=1;entryX=0;entryY=0.5;entryDx=0;entryDy=0;" edge="1" parent="1" source="XUeqsiyK5jiDArJPYxm4-49" target="XUeqsiyK5jiDArJPYxm4-52">
          <mxGeometry relative="1" as="geometry" />
        </mxCell>
        <mxCell id="XUeqsiyK5jiDArJPYxm4-49" value="Administración de Pedidos" style="ellipse;whiteSpace=wrap;html=1;" vertex="1" parent="1">
          <mxGeometry x="410" y="1200" width="120" height="80" as="geometry" />
        </mxCell>
        <mxCell id="XUeqsiyK5jiDArJPYxm4-52" value="Ver estado de impresión" style="ellipse;whiteSpace=wrap;html=1;" vertex="1" parent="1">
          <mxGeometry x="580" y="1200" width="120" height="80" as="geometry" />
        </mxCell>
        <mxCell id="XUeqsiyK5jiDArJPYxm4-79" style="edgeStyle=orthogonalEdgeStyle;rounded=0;orthogonalLoop=1;jettySize=auto;html=1;entryX=0;entryY=0.5;entryDx=0;entryDy=0;" edge="1" parent="1" source="XUeqsiyK5jiDArJPYxm4-61" target="XUeqsiyK5jiDArJPYxm4-67">
          <mxGeometry relative="1" as="geometry" />
        </mxCell>
        <mxCell id="XUeqsiyK5jiDArJPYxm4-61" value="" style="shape=umlActor;verticalLabelPosition=bottom;verticalAlign=top;html=1;outlineConnect=0;" vertex="1" parent="1">
          <mxGeometry x="190" y="560" width="30" height="60" as="geometry" />
        </mxCell>
        <mxCell id="XUeqsiyK5jiDArJPYxm4-62" value="Usuario&lt;div&gt;Registrado&lt;/div&gt;" style="text;html=1;align=center;verticalAlign=middle;whiteSpace=wrap;rounded=0;" vertex="1" parent="1">
          <mxGeometry x="167.5" y="530" width="75" height="30" as="geometry" />
        </mxCell>
        <mxCell id="XUeqsiyK5jiDArJPYxm4-63" value="" style="group" vertex="1" connectable="0" parent="1">
          <mxGeometry x="120" y="270" width="170" height="240" as="geometry" />
        </mxCell>
        <mxCell id="XUeqsiyK5jiDArJPYxm4-4" value="" style="rounded=0;whiteSpace=wrap;html=1;fillColor=#d5e8d4;strokeColor=#82b366;movable=1;resizable=1;rotatable=1;deletable=1;editable=1;locked=0;connectable=1;" vertex="1" parent="XUeqsiyK5jiDArJPYxm4-63">
          <mxGeometry width="170" height="240" as="geometry" />
        </mxCell>
        <mxCell id="XUeqsiyK5jiDArJPYxm4-5" value="ChatBot" style="text;html=1;align=center;verticalAlign=middle;whiteSpace=wrap;rounded=0;movable=1;resizable=1;rotatable=1;deletable=1;editable=1;locked=0;connectable=1;" vertex="1" parent="XUeqsiyK5jiDArJPYxm4-63">
          <mxGeometry width="60" height="30" as="geometry" />
        </mxCell>
        <mxCell id="XUeqsiyK5jiDArJPYxm4-37" style="edgeStyle=orthogonalEdgeStyle;rounded=0;orthogonalLoop=1;jettySize=auto;html=1;exitX=0.5;exitY=1;exitDx=0;exitDy=0;entryX=0.5;entryY=0;entryDx=0;entryDy=0;" edge="1" parent="XUeqsiyK5jiDArJPYxm4-63" source="XUeqsiyK5jiDArJPYxm4-6" target="XUeqsiyK5jiDArJPYxm4-7">
          <mxGeometry relative="1" as="geometry" />
        </mxCell>
        <mxCell id="XUeqsiyK5jiDArJPYxm4-6" value="Consultar&lt;div&gt;&lt;span style=&quot;background-color: transparent; color: light-dark(rgb(0, 0, 0), rgb(255, 255, 255));&quot;&gt;información&lt;/span&gt;&lt;/div&gt;" style="ellipse;whiteSpace=wrap;html=1;movable=1;resizable=1;rotatable=1;deletable=1;editable=1;locked=0;connectable=1;" vertex="1" parent="XUeqsiyK5jiDArJPYxm4-63">
          <mxGeometry x="25" y="40" width="120" height="80" as="geometry" />
        </mxCell>
        <mxCell id="XUeqsiyK5jiDArJPYxm4-7" value="Redirección a Aplicación Web" style="ellipse;whiteSpace=wrap;html=1;movable=1;resizable=1;rotatable=1;deletable=1;editable=1;locked=0;connectable=1;" vertex="1" parent="XUeqsiyK5jiDArJPYxm4-63">
          <mxGeometry x="25" y="140" width="120" height="80" as="geometry" />
        </mxCell>
        <mxCell id="XUeqsiyK5jiDArJPYxm4-50" style="edgeStyle=orthogonalEdgeStyle;rounded=0;orthogonalLoop=1;jettySize=auto;html=1;entryX=0.5;entryY=0;entryDx=0;entryDy=0;" edge="1" parent="1" source="XUeqsiyK5jiDArJPYxm4-1" target="XUeqsiyK5jiDArJPYxm4-6">
          <mxGeometry relative="1" as="geometry" />
        </mxCell>
        <mxCell id="XUeqsiyK5jiDArJPYxm4-65" style="edgeStyle=orthogonalEdgeStyle;rounded=0;orthogonalLoop=1;jettySize=auto;html=1;entryX=0.5;entryY=0;entryDx=0;entryDy=0;" edge="1" parent="1" source="XUeqsiyK5jiDArJPYxm4-1" target="XUeqsiyK5jiDArJPYxm4-10">
          <mxGeometry relative="1" as="geometry" />
        </mxCell>
        <mxCell id="XUeqsiyK5jiDArJPYxm4-78" style="edgeStyle=orthogonalEdgeStyle;rounded=0;orthogonalLoop=1;jettySize=auto;html=1;exitX=0.5;exitY=1;exitDx=0;exitDy=0;entryX=0.5;entryY=0;entryDx=0;entryDy=0;" edge="1" parent="1" source="XUeqsiyK5jiDArJPYxm4-10" target="XUeqsiyK5jiDArJPYxm4-67">
          <mxGeometry relative="1" as="geometry" />
        </mxCell>
        <mxCell id="XUeqsiyK5jiDArJPYxm4-10" value="Registrarse" style="ellipse;whiteSpace=wrap;html=1;container=0;" vertex="1" parent="1">
          <mxGeometry x="540" y="440" width="120" height="80" as="geometry" />
        </mxCell>
        <mxCell id="XUeqsiyK5jiDArJPYxm4-11" value="Consultar catálogo" style="ellipse;whiteSpace=wrap;html=1;container=0;" vertex="1" parent="1">
          <mxGeometry x="380" y="380" width="120" height="80" as="geometry" />
        </mxCell>
        <mxCell id="XUeqsiyK5jiDArJPYxm4-77" style="edgeStyle=orthogonalEdgeStyle;rounded=0;orthogonalLoop=1;jettySize=auto;html=1;entryX=0;entryY=0.5;entryDx=0;entryDy=0;exitX=0.5;exitY=1;exitDx=0;exitDy=0;" edge="1" parent="1" source="XUeqsiyK5jiDArJPYxm4-12" target="XUeqsiyK5jiDArJPYxm4-16">
          <mxGeometry relative="1" as="geometry" />
        </mxCell>
        <mxCell id="XUeqsiyK5jiDArJPYxm4-12" value="Personalizar RanpuLamp" style="ellipse;whiteSpace=wrap;html=1;container=0;" vertex="1" parent="1">
          <mxGeometry x="380" y="660" width="120" height="80" as="geometry" />
        </mxCell>
        <mxCell id="XUeqsiyK5jiDArJPYxm4-75" style="edgeStyle=orthogonalEdgeStyle;rounded=0;orthogonalLoop=1;jettySize=auto;html=1;entryX=0.5;entryY=0;entryDx=0;entryDy=0;" edge="1" parent="1" source="XUeqsiyK5jiDArJPYxm4-14" target="XUeqsiyK5jiDArJPYxm4-16">
          <mxGeometry relative="1" as="geometry" />
        </mxCell>
        <mxCell id="XUeqsiyK5jiDArJPYxm4-14" value="Generar Modelo&amp;nbsp;&lt;div&gt;3D con IA&lt;/div&gt;" style="ellipse;whiteSpace=wrap;html=1;container=0;" vertex="1" parent="1">
          <mxGeometry x="540" y="660" width="120" height="80" as="geometry" />
        </mxCell>
        <mxCell id="XUeqsiyK5jiDArJPYxm4-22" style="edgeStyle=orthogonalEdgeStyle;rounded=0;orthogonalLoop=1;jettySize=auto;html=1;entryX=0.5;entryY=0;entryDx=0;entryDy=0;" edge="1" parent="1" source="XUeqsiyK5jiDArJPYxm4-16" target="XUeqsiyK5jiDArJPYxm4-21">
          <mxGeometry relative="1" as="geometry" />
        </mxCell>
        <mxCell id="XUeqsiyK5jiDArJPYxm4-16" value="Agregar / Editar&lt;div&gt;Carrito de compras&lt;/div&gt;" style="ellipse;whiteSpace=wrap;html=1;container=0;" vertex="1" parent="1">
          <mxGeometry x="540" y="770" width="120" height="80" as="geometry" />
        </mxCell>
        <mxCell id="XUeqsiyK5jiDArJPYxm4-24" style="edgeStyle=orthogonalEdgeStyle;rounded=0;orthogonalLoop=1;jettySize=auto;html=1;exitX=0;exitY=0.5;exitDx=0;exitDy=0;entryX=1;entryY=0.5;entryDx=0;entryDy=0;" edge="1" parent="1" source="XUeqsiyK5jiDArJPYxm4-21" target="XUeqsiyK5jiDArJPYxm4-23">
          <mxGeometry relative="1" as="geometry" />
        </mxCell>
        <mxCell id="XUeqsiyK5jiDArJPYxm4-26" style="edgeStyle=orthogonalEdgeStyle;rounded=0;orthogonalLoop=1;jettySize=auto;html=1;exitX=1;exitY=0.5;exitDx=0;exitDy=0;entryX=0;entryY=0.5;entryDx=0;entryDy=0;" edge="1" parent="1" source="XUeqsiyK5jiDArJPYxm4-21" target="XUeqsiyK5jiDArJPYxm4-25">
          <mxGeometry relative="1" as="geometry" />
        </mxCell>
        <mxCell id="XUeqsiyK5jiDArJPYxm4-21" value="Re&lt;span style=&quot;background-color: transparent; color: light-dark(rgb(0, 0, 0), rgb(255, 255, 255));&quot;&gt;alizar Pago&lt;/span&gt;" style="ellipse;whiteSpace=wrap;html=1;container=0;" vertex="1" parent="1">
          <mxGeometry x="540" y="880" width="120" height="80" as="geometry" />
        </mxCell>
        <mxCell id="XUeqsiyK5jiDArJPYxm4-23" value="Consultar / Seguir&lt;div&gt;Pedido&lt;/div&gt;" style="ellipse;whiteSpace=wrap;html=1;container=0;" vertex="1" parent="1">
          <mxGeometry x="380" y="880" width="120" height="80" as="geometry" />
        </mxCell>
        <mxCell id="XUeqsiyK5jiDArJPYxm4-25" value="Envío de notificaciones" style="ellipse;whiteSpace=wrap;html=1;container=0;" vertex="1" parent="1">
          <mxGeometry x="700" y="880" width="120" height="80" as="geometry" />
        </mxCell>
        <mxCell id="XUeqsiyK5jiDArJPYxm4-27" value="Portal Web" style="text;html=1;align=center;verticalAlign=middle;whiteSpace=wrap;rounded=0;container=0;" vertex="1" parent="1">
          <mxGeometry x="722.5" y="370" width="75" height="30" as="geometry" />
        </mxCell>
        <mxCell id="XUeqsiyK5jiDArJPYxm4-72" style="edgeStyle=orthogonalEdgeStyle;rounded=0;orthogonalLoop=1;jettySize=auto;html=1;exitX=0;exitY=1;exitDx=0;exitDy=0;entryX=0.5;entryY=0;entryDx=0;entryDy=0;" edge="1" parent="1" source="XUeqsiyK5jiDArJPYxm4-67" target="XUeqsiyK5jiDArJPYxm4-12">
          <mxGeometry relative="1" as="geometry" />
        </mxCell>
        <mxCell id="XUeqsiyK5jiDArJPYxm4-73" style="edgeStyle=orthogonalEdgeStyle;rounded=0;orthogonalLoop=1;jettySize=auto;html=1;exitX=1;exitY=1;exitDx=0;exitDy=0;entryX=0.5;entryY=0;entryDx=0;entryDy=0;" edge="1" parent="1" source="XUeqsiyK5jiDArJPYxm4-67" target="XUeqsiyK5jiDArJPYxm4-71">
          <mxGeometry relative="1" as="geometry" />
        </mxCell>
        <mxCell id="XUeqsiyK5jiDArJPYxm4-74" style="edgeStyle=orthogonalEdgeStyle;rounded=0;orthogonalLoop=1;jettySize=auto;html=1;entryX=0.5;entryY=0;entryDx=0;entryDy=0;" edge="1" parent="1" source="XUeqsiyK5jiDArJPYxm4-67" target="XUeqsiyK5jiDArJPYxm4-14">
          <mxGeometry relative="1" as="geometry" />
        </mxCell>
        <mxCell id="XUeqsiyK5jiDArJPYxm4-67" value="Iniciar Sesión" style="ellipse;whiteSpace=wrap;html=1;container=0;" vertex="1" parent="1">
          <mxGeometry x="540" y="550" width="120" height="80" as="geometry" />
        </mxCell>
        <mxCell id="XUeqsiyK5jiDArJPYxm4-76" style="edgeStyle=orthogonalEdgeStyle;rounded=0;orthogonalLoop=1;jettySize=auto;html=1;exitX=0.5;exitY=1;exitDx=0;exitDy=0;entryX=1;entryY=0.5;entryDx=0;entryDy=0;" edge="1" parent="1" source="XUeqsiyK5jiDArJPYxm4-71" target="XUeqsiyK5jiDArJPYxm4-16">
          <mxGeometry relative="1" as="geometry" />
        </mxCell>
        <mxCell id="XUeqsiyK5jiDArJPYxm4-71" value="Consultar catálogo" style="ellipse;whiteSpace=wrap;html=1;container=0;" vertex="1" parent="1">
          <mxGeometry x="700" y="660" width="120" height="80" as="geometry" />
        </mxCell>
        <mxCell id="XUeqsiyK5jiDArJPYxm4-80" style="edgeStyle=orthogonalEdgeStyle;rounded=0;orthogonalLoop=1;jettySize=auto;html=1;exitX=1;exitY=1;exitDx=0;exitDy=0;entryX=0;entryY=0.5;entryDx=0;entryDy=0;" edge="1" parent="1" source="XUeqsiyK5jiDArJPYxm4-7" target="XUeqsiyK5jiDArJPYxm4-10">
          <mxGeometry relative="1" as="geometry">
            <Array as="points">
              <mxPoint x="247" y="480" />
            </Array>
          </mxGeometry>
        </mxCell>
        <mxCell id="XUeqsiyK5jiDArJPYxm4-82" style="edgeStyle=orthogonalEdgeStyle;rounded=0;orthogonalLoop=1;jettySize=auto;html=1;exitX=1;exitY=0;exitDx=0;exitDy=0;entryX=0;entryY=0.5;entryDx=0;entryDy=0;" edge="1" parent="1" source="XUeqsiyK5jiDArJPYxm4-7" target="XUeqsiyK5jiDArJPYxm4-11">
          <mxGeometry relative="1" as="geometry">
            <Array as="points">
              <mxPoint x="247" y="420" />
            </Array>
          </mxGeometry>
        </mxCell>
      </root>
    </mxGraphModel>
  </diagram>
</mxfile>
